<svg width="24" height="24" viewBox="0 0 24 24" fill="none" xmlns="http://www.w3.org/2000/svg">
<path fill-rule="evenodd" clip-rule="evenodd" d="M17 9C17 12.2012 14.2058 15 10.5 15C6.79419 15 4 12.2012 4 9C4 5.79879 6.79419 3 10.5 3C14.2058 3 17 5.79879 17 9ZM14.8656 15.8656C13.5896 16.5859 12.0962 17 10.5 17C5.80558 17 2 13.4183 2 9C2 4.58172 5.80558 1 10.5 1C15.1944 1 19 4.58172 19 9C19 11.2153 18.0433 13.2204 16.4975 14.669L22.7071 20.8787C23.0976 21.2692 23.0976 21.9024 22.7071 22.2929C22.3166 22.6834 21.6834 22.6834 21.2929 22.2929L14.8656 15.8656Z" fill="#292929"/>
</svg>
