<svg width="24" height="18" viewBox="0 0 24 18" fill="none" xmlns="http://www.w3.org/2000/svg">
<path fill-rule="evenodd" clip-rule="evenodd" d="M1 0C0.447715 0 0 0.447715 0 1C0 1.55228 0.447715 2 1 2H3.35324L7.39363 13.1009C7.51187 13.4257 7.78095 13.6521 8.09298 13.7297C8.25783 13.8494 8.46067 13.92 8.68 13.92H19.16C19.5672 13.92 19.9176 13.6766 20.0735 13.3273C20.3286 13.2253 20.5407 13.0192 20.642 12.7408L23.7434 4.21969C23.8297 3.98283 23.8208 3.73454 23.7363 3.51663C23.9 3.33857 24 3.10095 24 2.83999C24 2.28771 23.5523 1.83999 23 1.83999H5.42336L5.02141 0.735644C4.95959 0.565782 4.85652 0.422851 4.72764 0.314041C4.5453 0.120689 4.28675 0 4 0H1ZM6.1513 3.83999H8.75385L8.92756 4.82516L6.59329 4.83299C6.56658 4.83308 6.54012 4.83421 6.51395 4.83636L6.1513 3.83999ZM9.94238 4.82176L9.76927 3.83999H13.4004C13.4001 3.84663 13.4 3.85329 13.4 3.85999V4.81017L9.94238 4.82176ZM14.4 3.85999C14.4 3.85329 14.3999 3.84663 14.3996 3.83999H17.9686L17.8002 4.79542L14.4 4.80682V3.85999ZM10.2948 6.82059L13.4 6.81018V8.07999H10.5169L10.2948 6.82059ZM9.50147 8.07999L9.28001 6.82399L7.23988 6.83083L7.69453 8.07999H9.50147ZM8.42247 10.08H9.85413L10.1786 11.92H9.09218L8.42247 10.08ZM10.8696 10.08H13.4V11.92H11.194L10.8696 10.08ZM14.4 10.08V11.92H16.5439L16.8684 10.08H14.4ZM17.8838 10.08L17.5593 11.92H18.8124L19.4821 10.08H17.8838ZM20.2101 8.07999H18.2364L18.4633 6.79321L20.6811 6.78577L20.2101 8.07999ZM17.221 8.07999H14.4V6.80683L17.4473 6.79661L17.221 8.07999ZM18.8162 4.79201L18.9841 3.83999H21.7533L21.4099 4.78346L21.3931 4.78338L18.8162 4.79201ZM11.04 16.08C11.04 17.0078 10.2878 17.76 9.36 17.76C8.43216 17.76 7.68 17.0078 7.68 16.08C7.68 15.1522 8.43216 14.4 9.36 14.4C10.2878 14.4 11.04 15.1522 11.04 16.08ZM18.48 17.76C19.4078 17.76 20.16 17.0078 20.16 16.08C20.16 15.1522 19.4078 14.4 18.48 14.4C17.5522 14.4 16.8 15.1522 16.8 16.08C16.8 17.0078 17.5522 17.76 18.48 17.76Z" fill="#292929"/>
</svg>
